<svg width="754" height="754" viewBox="0 0 754 754" fill="none" xmlns="http://www.w3.org/2000/svg">
<style>
    #one, #two { fill: #fff; }

    @media (prefers-color-scheme: dark) {
        #one, #two { fill: #fff; }
    }
</style>

<path d="M175.889 313C219.633 308.456 263.377 303.916 307.122 299.379C315.056 298.558 322.991 297.362 330.946 297.178C392.838 295.739 454.731 294.306 516.63 293.268C578.36 292.232 640.103 291.959 701.826 290.679C718.362 290.335 723.245 297.604 722.709 312.934C721.041 360.703 718.678 408.515 719.277 456.277C719.775 495.938 724.792 535.522 726.495 575.196C728.173 614.281 728.396 653.436 728.864 692.564C728.974 701.109 725.74 709.358 719.852 715.55C713.964 721.743 705.889 725.389 697.35 725.711C644.797 728.532 592.273 732.097 539.688 734.056C483.906 736.133 428.001 738.957 372.274 737.29C318.095 735.67 263.826 736.755 209.589 728.441C179.545 723.837 147.296 730.69 116.426 735.082C71.4511 741.482 61.9827 735.005 64.7037 689.482C67.9194 635.679 74.6596 582.067 77.1181 528.246C78.9326 488.523 76.3189 448.6 75.7125 408.765C75.5816 400.175 75.9756 391.56 75.4855 382.993C72.0225 334.39 56.1398 287.489 29.3581 246.783C25.7099 240.792 24.4086 233.662 25.7051 226.769C26.4845 223.742 36.477 223.04 42.3297 221.381C46.8716 220.406 51.3588 219.192 55.7722 217.742C116.931 193.088 177.389 166.513 239.349 144.082C292.784 124.737 347.953 110.2 402.283 93.3033C457.73 76.0597 513.121 58.6393 568.458 41.0423C590.9 33.878 612.939 25.453 635.379 18.281C645.105 15.1725 654.206 13.4517 656.585 29.0343C660.249 53.0459 665.526 76.8711 671.402 100.456C674.241 110.467 678.498 120.02 684.044 128.825C693.965 145.591 689.61 160.358 671.119 165.646C614.248 181.911 557.163 197.423 500.278 213.64C395.672 243.46 291.118 273.459 186.614 303.637C182.677 305.052 178.842 306.737 175.137 308.681L175.889 313ZM698.881 393.58C666.67 393.58 638.136 393.447 609.603 393.61C561.377 393.884 513.107 393.161 464.938 395.013C396.443 397.646 328.033 402.414 259.566 405.851C242.633 406.7 225.617 405.837 208.64 405.934C186.161 406.062 163.668 407.001 141.209 406.432C108.594 405.606 103.181 410.482 102.643 442.268C101.762 494.374 101.06 546.496 99.0662 598.565C97.8727 629.729 94.3969 660.808 91.8815 691.919C90.7232 706.248 96.5919 711.005 111.343 710.362C158.834 708.293 206.387 706.722 253.915 706.756C290.584 706.782 327.241 709.795 363.92 710.96C398.795 712.068 433.784 714.454 468.56 712.823C540.67 709.44 612.638 703.031 684.745 699.56C702.389 698.711 705.713 689.873 705.166 676.734C703.54 637.644 699.932 598.613 699.15 559.517C698.075 505.766 698.881 451.977 698.881 393.58V393.58ZM252.321 262.317C290.364 251.32 323.669 241.894 356.785 231.847C361.028 230.199 364.501 227.024 366.523 222.945C373.243 208.879 378.489 194.103 385.326 180.1C397.596 154.974 410.617 130.215 423.324 105.303L419.722 101.382C386.959 112.247 354.013 122.61 321.596 134.422C315.064 137.873 309.856 143.388 306.784 150.106C290.083 181.299 274.1 212.877 258.082 244.43C255.781 250.263 253.856 256.237 252.321 262.317ZM628.295 35.6143C611.85 46.1321 592.838 51.7376 585.476 64.2161C562.486 103.18 543.9 144.743 523.607 185.298L527.104 188.885C570.598 174.717 614.093 160.549 654.97 147.233C645.86 109.113 637.833 75.5254 628.295 35.6142V35.6143ZM345.402 379.542L348.671 384.047C380.128 382.109 411.626 380.636 443.004 377.819C449.426 376.173 455.229 372.692 459.705 367.801C470.631 358.032 480.612 347.212 491.438 337.323C499.115 330.31 507.545 324.12 519.594 314.358C482.303 314.358 451.258 314.282 420.215 314.486C417.191 314.493 414.258 315.527 411.896 317.417C389.598 337.981 367.531 358.795 345.402 379.542ZM165.2 194.93L161.035 191.008C126.391 206.297 91.7472 221.587 60.2376 235.493C69.5309 264.291 76.8953 287.833 84.9324 311.143C85.7954 312.832 87.007 314.32 88.4871 315.507C89.9673 316.694 91.6823 317.553 93.5191 318.029C96.4913 316.586 98.8224 314.092 100.061 311.029C109.721 291.794 118.212 271.92 128.735 253.182C139.939 233.231 152.968 214.304 165.2 194.93ZM111.836 385.598C176.031 406.139 217.12 368.568 258.563 326.22C231.177 324.068 203.666 328.312 178.201 338.617C152.737 348.922 130.018 365.006 111.836 385.598ZM611.297 367.106L612.703 372.029C632.005 372.029 651.312 372.282 670.609 371.971C700.576 371.488 700.994 371.333 701.522 341.261C701.646 334.203 699.403 322.127 695.592 320.947C685.669 317.877 671.199 315.199 664.056 320.215C645.488 334.704 627.865 350.367 611.296 367.106L611.297 367.106Z" id="one"/>
<path d="M501.867 554.259C501.867 490.992 450.443 439.257 386.865 439.257C323.286 439.257 271.862 490.992 271.862 554.259C271.862 617.526 323.598 669.261 386.865 669.261C450.131 669.261 501.867 617.526 501.867 554.259ZM386.865 474.163C396.526 474.163 404.318 481.954 404.318 491.616C404.318 501.277 396.526 509.069 386.865 509.069C377.203 509.069 369.412 501.277 369.412 491.616C369.412 482.266 377.203 474.163 386.865 474.163ZM369.412 626.564C367.853 629.992 364.737 631.862 361.309 631.862C360.062 631.862 358.815 631.551 357.569 630.927C352.894 628.746 351.024 623.448 353.205 618.773C353.205 618.773 370.347 579.504 373.463 565.167C374.71 560.181 375.333 546.779 375.645 540.546C375.645 538.365 374.398 536.495 372.528 535.871L333.883 524.652C328.896 523.093 326.091 517.795 327.649 513.12C329.208 508.445 334.506 506.264 339.181 507.51C339.181 507.51 374.398 518.73 386.865 518.73C399.331 518.73 435.172 507.199 435.172 507.199C439.847 505.952 445.145 508.757 446.392 513.432C447.638 518.107 444.833 523.405 440.158 524.652L401.824 536.183C399.954 536.806 398.396 538.676 398.708 540.858C399.019 547.091 399.643 560.492 400.889 565.479C404.006 579.815 421.147 619.084 421.147 619.084C423.329 623.759 421.147 629.057 416.784 631.239C415.537 631.862 414.291 632.174 413.044 632.174C409.616 632.174 406.187 630.304 404.941 626.876L386.865 589.165L369.412 626.564Z" id="two"/>
</svg>
